<svg version="1.1" id="Layer_1" xmlns="http://www.w3.org/2000/svg" xmlns:xlink="http://www.w3.org/1999/xlink" x="0px" y="0px"
	 viewBox="0 0 30.2 17" enable-background="new 0 0 30.2 17" xml:space="preserve">
<path fill="#FFFFFF" d="M30.1,16.1L25.1,0.7c-0.1-0.2-0.3-0.4-0.5-0.4h-2.3c-0.2,0-0.5,0.2-0.5,0.4l-5.1,15.4
	c-0.1,0.2,0,0.4,0.1,0.5c0.1,0.1,0.3,0.2,0.5,0.2h2c0.2,0,0.5-0.2,0.5-0.4l1.1-3.6h5.1l1.2,3.6c0.1,0.2,0.3,0.4,0.5,0.4h2
	c0.2,0,0.4-0.1,0.5-0.2C30.2,16.4,30.2,16.2,30.1,16.1z M21.7,9.9l1.6-5.2L25,9.9H21.7z M15.1,0.6v15.9c0,0.2-0.1,0.3-0.3,0.3
	c-0.2,0-0.3-0.1-0.3-0.3V0.6c0-0.2,0.1-0.3,0.3-0.3C15,0.3,15.1,0.4,15.1,0.6z M12.7,11.9c0,1.3-0.5,2.5-1.4,3.4
	C10.1,16.4,8.4,17,6.5,17c-2,0-3.6-0.5-4.7-1.6C0.6,14.3,0,12.9,0,11.3c0-0.3,0.3-0.6,0.6-0.6h2c0.3,0,0.6,0.2,0.6,0.6
	c0,0.7,0.3,1.5,0.9,2c0.5,0.5,1.4,0.8,2.5,0.8c1.1,0,1.9-0.2,2.4-0.7C9.4,13,9.5,12.6,9.5,12c0-1.1-0.7-1.7-2.1-1.9L5.1,9.7
	C2.3,9.3,0.6,7.6,0.6,5.1c0-1.3,0.5-2.5,1.5-3.4C3.3,0.6,4.7,0,6.4,0c1.7,0,3.3,0.6,4.3,1.6c1,1,1.6,2.2,1.6,3.7
	c0,0.2-0.1,0.3-0.2,0.4c-0.1,0.1-0.3,0.2-0.4,0.2h-2c-0.3,0-0.5-0.2-0.6-0.5c0-0.6-0.2-1.1-0.6-1.5C8.1,3.2,7.4,2.9,6.4,2.9
	c-1,0-1.7,0.3-2.2,0.9C3.8,4.1,3.7,4.5,3.7,5.1c0,1.2,1.1,1.5,1.8,1.6C6,6.7,6.6,6.8,7.1,6.9L8,7C10.9,7.5,12.7,9.3,12.7,11.9z"/>
</svg>
