<svg version="1.1" id="Layer_1" xmlns="http://www.w3.org/2000/svg" xmlns:xlink="http://www.w3.org/1999/xlink" x="0px" y="0px"
	 viewBox="0 0 58.4 54.4" enable-background="new 0 0 58.4 54.4" xml:space="preserve">
<g>
	<path d="M58.4,26.2c0-6.7-5.3-12.7-14.3-16c-1.3-0.5-2.7,0.2-3.2,1.5c-0.5,1.3,0.2,2.7,1.5,3.2
		c6.8,2.6,11.1,6.9,11.1,11.3c0,6.3-8.1,11.7-18.6,13.2l5.1-5.2c1-1,1-2.6,0-3.5c-1-1-2.6-1-3.5,0L25,42.2l11.4,11.5
		c0.5,0.5,1.1,0.7,1.8,0.7c0.6,0,1.3-0.2,1.8-0.7c1-1,1-2.6,0-3.5l-5.6-5.6C48.2,42.9,58.4,35.5,58.4,26.2z"/>
	<path d="M22,0.7c-1-1-2.6-1-3.5,0c-1,1-1,2.6,0,3.5l5.6,5.6c-5.6,0.6-10.8,2.3-14.9,4.8C3.2,18.1,0,23,0,28.2
		c0,6.7,5.3,12.7,14.3,16c0.3,0.1,0.6,0.2,0.9,0.2c1,0,2-0.6,2.3-1.6c0.5-1.3-0.2-2.7-1.5-3.2C9.2,37,5,32.6,5,28.2
		c0-3.4,2.4-6.7,6.7-9.3c3.3-2,7.4-3.3,11.9-4l-5.1,5.2c-1,1-1,2.6,0,3.5c0.5,0.5,1.1,0.7,1.8,0.7c0.6,0,1.3-0.2,1.8-0.7l11.4-11.5
		L22,0.7z"/>
</g>
</svg>
