<?xml version="1.0" encoding="utf-8"?>
<svg version="1.1" xmlns="http://www.w3.org/2000/svg" xmlns:xlink="http://www.w3.org/1999/xlink" x="0px" y="0px"
	 viewBox="0 0 15.2 15" enable-background="new 0 0 15.2 15" xml:space="preserve">
<g>
	<path fill="#FFFFFF" d="M7.6,2.8C8.4,2.8,9,2.1,9,1.4S8.3,0,7.5,0C6.7,0,6.1,0.7,6.1,1.4c0,0,0,0,0,0.1C6.2,2.3,6.9,2.9,7.6,2.8z"
		/>
	<path fill="#FFFFFF" d="M1.5,2.8c0.8,0,1.4-0.7,1.3-1.5S2.1,0,1.4,0C0.6,0,0,0.7,0,1.4c0,0,0,0,0,0.1C0,2.3,0.7,2.9,1.5,2.8z"/>
	<path fill="#FFFFFF" d="M13.8,2.8c0.8,0,1.4-0.7,1.3-1.5S14.4,0,13.7,0h0c-0.8,0-1.4,0.7-1.3,1.4c0,0,0,0,0,0.1
		C12.3,2.3,13,2.9,13.8,2.8z"/>
	<path fill="#FFFFFF" d="M13.8,8.9c0.8,0,1.4-0.7,1.3-1.5c0-0.8-0.7-1.4-1.5-1.3h0c-0.8,0-1.4,0.7-1.3,1.4c0,0,0,0.1,0,0.1
		C12.4,8.4,13,9,13.8,8.9z"/>
	<path fill="#FFFFFF" d="M1.4,12.2c-0.8,0-1.4,0.7-1.4,1.4c0,0,0,0,0,0.1C0,14.4,0.7,15,1.5,15s1.4-0.7,1.3-1.5S2.1,12.1,1.4,12.2z"
		/>
	<path fill="#FFFFFF" d="M7.5,6.1c-0.8,0-1.4,0.7-1.4,1.4c0,0,0,0.1,0,0.1c0,0.8,0.7,1.4,1.5,1.3c0.8,0,1.4-0.7,1.3-1.5
		C9,6.6,8.3,6,7.5,6.1z"/>
	<path fill="#FFFFFF" d="M13.7,12.2L13.7,12.2c-0.8,0-1.4,0.7-1.4,1.4c0,0,0,0,0,0.1c0,0.8,0.7,1.4,1.5,1.3s1.4-0.7,1.3-1.5
		S14.4,12.1,13.7,12.2z"/>
	<path fill="#FFFFFF" d="M1.4,6.1C0.6,6.1,0,6.7,0,7.5c0,0,0,0.1,0,0.1c0,0.8,0.7,1.4,1.5,1.3c0.8,0,1.4-0.7,1.3-1.5
		C2.8,6.6,2.1,6,1.4,6.1z"/>
	<path fill="#FFFFFF" d="M7.5,12.2c-0.8,0-1.4,0.7-1.4,1.4c0,0,0,0,0,0.1c0,0.8,0.7,1.4,1.5,1.3S9,14.3,9,13.5S8.3,12.1,7.5,12.2z"
		/>
</g>
</svg>
