<svg version="1.1" xmlns="http://www.w3.org/2000/svg" xmlns:xlink="http://www.w3.org/1999/xlink" x="0px" y="0px"
	 viewBox="0 0 30.2 17" style="enable-background:new 0 0 30.2 17;" xml:space="preserve">
<path d="M30.1,16.1l-5-15.4c-0.1-0.2-0.3-0.4-0.5-0.4h-2.3c-0.2,0-0.5,0.2-0.5,0.4l-5.1,15.4c-0.1,0.2,0,0.4,0.1,0.5
	s0.3,0.2,0.5,0.2h2c0.2,0,0.5-0.2,0.5-0.4l1.1-3.6H26l1.2,3.6c0.1,0.2,0.3,0.4,0.5,0.4h2c0.2,0,0.4-0.1,0.5-0.2
	C30.2,16.4,30.2,16.2,30.1,16.1z M21.7,9.9l1.6-5.2L25,9.9H21.7z M15.1,0.6v15.9c0,0.2-0.1,0.3-0.3,0.3s-0.3-0.1-0.3-0.3V0.6
	c0-0.2,0.1-0.3,0.3-0.3S15.1,0.4,15.1,0.6z M12.7,11.9c0,1.3-0.5,2.5-1.4,3.4C10.1,16.4,8.4,17,6.5,17c-2,0-3.6-0.5-4.7-1.6
	C0.6,14.3,0,12.9,0,11.3c0-0.3,0.3-0.6,0.6-0.6h2c0.3,0,0.6,0.2,0.6,0.6c0,0.7,0.3,1.5,0.9,2c0.5,0.5,1.4,0.8,2.5,0.8
	s1.9-0.2,2.4-0.7C9.4,13,9.5,12.6,9.5,12c0-1.1-0.7-1.7-2.1-1.9L5.1,9.7C2.3,9.3,0.6,7.6,0.6,5.1c0-1.3,0.5-2.5,1.5-3.4
	C3.3,0.6,4.7,0,6.4,0s3.3,0.6,4.3,1.6s1.6,2.2,1.6,3.7c0,0.2-0.1,0.3-0.2,0.4c-0.1,0.1-0.3,0.2-0.4,0.2h-2c-0.3,0-0.5-0.2-0.6-0.5
	c0-0.6-0.2-1.1-0.6-1.5c-0.4-0.7-1.1-1-2.1-1S4.7,3.2,4.2,3.8C3.8,4.1,3.7,4.5,3.7,5.1c0,1.2,1.1,1.5,1.8,1.6c0.5,0,1.1,0.1,1.6,0.2
	L8,7C10.9,7.5,12.7,9.3,12.7,11.9z"/>
</svg>
