<svg version="1.1" xmlns="http://www.w3.org/2000/svg" xmlns:xlink="http://www.w3.org/1999/xlink" x="0px" y="0px"
	 viewBox="0 0 24 24" style="enable-background:new 0 0 24 24;" xml:space="preserve">
<path d="M2.8,19.8C1.2,17.9,0.2,15.6,0,13h2c0.2,2,1,3.9,2.2,5.3C4.2,18.4,2.8,19.8,2.8,19.8z M2,11c0.2-2,1-3.9,2.2-5.3L2.8,4.2
	C1.2,6.1,0.2,8.4,0,11C0,11,2,11,2,11z M13,0v2c2,0.2,3.9,1,5.3,2.2l1.4-1.4C17.9,1.2,15.6,0.2,13,0z M5.6,4.2C7.1,3,9,2.2,11,2V0
	C8.4,0.2,6.1,1.2,4.2,2.8C4.2,2.8,5.6,4.2,5.6,4.2z M19.8,5.6C21,7.1,21.8,9,22,11h2c-0.2-2.6-1.2-4.9-2.8-6.8
	C21.2,4.2,19.8,5.6,19.8,5.6z M22,13c-0.2,2-1,3.9-2.2,5.3l1.4,1.4c1.6-1.9,2.6-4.2,2.8-6.8C24,13,22,13,22,13z M11,22
	c-2-0.2-3.9-1-5.3-2.2l-1.4,1.4c1.9,1.6,4.2,2.6,6.8,2.8C11,24,11,22,11,22z M18.4,19.8C16.9,21,15,21.8,13,22v2
	c2.6-0.2,4.9-1.2,6.8-2.8L18.4,19.8z"/>
</svg>
