<svg version="1.1" id="Layer_1" xmlns="http://www.w3.org/2000/svg" xmlns:xlink="http://www.w3.org/1999/xlink" x="0px" y="0px"
	 viewBox="0 0 24 18" enable-background="new 0 0 24 18" xml:space="preserve">
<g id="Rectangle_14_copy_19" opacity="0.5" enable-background="new    ">
	<path fill="#FFFFFF" d="M24,18H0V0h24V18z M2,16h20V2H2V16z"/>
</g>
<g id="Rectangle_14_copy_20">
	<path fill="#FFFFFF" d="M8.3,14.4H3.7V9.7c0-0.6,0.4-1,1-1s1,0.4,1,1v2.6h2.7c0.6,0,1,0.4,1,1S8.9,14.4,8.3,14.4z"/>
</g>
<g id="Rectangle_14_copy_21">
	<path fill="#FFFFFF" d="M19.3,9.3c-0.6,0-1-0.4-1-1V5.6h-2.7c-0.6,0-1-0.4-1-1s0.4-1,1-1h4.7v4.6C20.3,8.8,19.9,9.3,19.3,9.3z"/>
</g>
</svg>
